# xmcd
#
# Track frame offsets: 
#        150
#        19099
#        41375
#        61515
#        77418
#        102102
#        117890
#        136482
#        149314
#        164428
#
# Disc length: 2653 seconds
#
# Revision: 0
# Processed by: cddbd v1.5.2PL0 Copyright (c) Steve Scherf et al.
# Submitted via: ExactAudioCopy v1.3
#
DISCID=750a5b0a
DTITLE=William Clarke - Heavy Hittin' West Coast Harp
DYEAR=2019
DGENRE=Blues
TTITLE0=Let's Celebrate Life (Gone)
TTITLE1=Home Is Where the Heart Is
TTITLE2=Chromatic Jump (Live Version)
TTITLE3=Coming Home to My Baby
TTITLE4=Must Be Jelly
TTITLE5=That Ain't the Way to Do It
TTITLE6=I Got My Bags Packed
TTITLE7=Hittin' Heavy
TTITLE8=When I Get Drunk
TTITLE9=Tribute to George Smith
EXTD=
EXTT0=
EXTT1=
EXTT2=
EXTT3=
EXTT4=
EXTT5=
EXTT6=
EXTT7=
EXTT8=
EXTT9=
PLAYORDER=
